<svg id="Layer_1" data-name="Layer 1" xmlns="http://www.w3.org/2000/svg" xmlns:xlink="http://www.w3.org/1999/xlink" viewBox="0 0 92.08 91.91"><defs><style>.cls-1{fill:url(#linear-gradient);}.cls-2{fill:#202020;}.cls-3{fill:#8e8a85;}.cls-4{fill:#262626;}.cls-5{fill:#dddad7;}.cls-6{fill:#d8d8d8;}</style><linearGradient id="linear-gradient" x1="1.41" y1="77.39" x2="44.5" y2="85.2" gradientUnits="userSpaceOnUse"><stop offset="0" stop-color="#fff" stop-opacity="0"/><stop offset="0.37"/></linearGradient></defs><path class="cls-1" d="M0,81.79H53l14.86,3h-51a20.1,20.1,0,0,1-3.94-.4Z"/><path class="cls-2" d="M29.26,63.62H18.55c0-6.34,0-12.25.06-17.67H8.69C8.69,67.73,9.82,84.82,20,84.82,25.88,84.82,28.28,78,29.26,63.62Z"/><path class="cls-3" d="M28.5,7.1c-8.13,0-9.62,14.56-9.89,38.85-.06,5.42-.06,11.33-.06,17.67H29.26c.33-5,.5-10.86.58-17.67.06-5.32.07-11.19.07-17.65h9.51C38.65,15.57,36.21,7.1,28.5,7.1Z"/><path class="cls-4" d="M66.5,46H39.77v0c0-6.42,0-12.39-.35-17.65H29.91c0,6.46,0,12.33-.07,17.65-.08,6.81-.25,12.69-.58,17.67-1,14.36-3.38,21.2-9.3,21.2H67.84c8.13,0,9.62-14.56,9.89-38.85Z"/><path class="cls-5" d="M76.38,7.1H28.5c7.71,0,10.15,8.47,10.92,21.2.31,5.26.35,11.23.35,17.65h16.8v0H87.65C87.65,24.18,86.52,7.1,76.38,7.1Z"/><path class="cls-6" d="M56.57,46v0H39.77v0Z"/></svg>