<svg id="Layer_1" data-name="Layer 1" xmlns="http://www.w3.org/2000/svg" viewBox="0 0 256 61.62"><defs><style>.cls-1{font-size:42.66px;font-family:Butler-Light, Butler;font-weight:300;}.cls-1,.cls-4{fill:#faf5ee;}.cls-2{letter-spacing:-0.09em;}.cls-3{letter-spacing:-0.04em;}</style></defs><text class="cls-1" transform="translate(71.92 46.54)"><tspan class="cls-2">P</tspan><tspan x="19.54" y="0">aper</tspan></text><text class="cls-1" transform="translate(168.87 46.54)">Link<tspan class="cls-3" x="76.67" y="0">.</tspan></text><path class="cls-4" d="M15.89,45.45H8.34V44c0-4.28,0-8.71,0-12.66H2.7c0,14.76.73,26.51,7,27.75C12.1,59.07,15.72,56.3,15.89,45.45Z"/><path class="cls-4" d="M35.59,32.8h-12V31.36c0-4.27,0-8.76-.25-12.57,0,0,0-.06,0-.09H17.91c0,4.64,0,8.84-.05,12.66-.06,4.88-.18,9.09-.42,12.66-.69,10.3-2.41,15.2-6.66,15.2H45.11c5.67,0,6.83-9.87,7.07-26.42Z"/><path class="cls-4" d="M15.45,3.75C10.89,5.43,10,15.5,9.81,31.36c0,3.88,0,8.12,0,12.66H16v-.1c.22-3.24.35-7.24.42-12.58,0-4,.05-8.43.05-12.64V17.27h6.71C22.54,8.51,20.89,3.52,15.45,3.75Z"/><path class="cls-4" d="M51.23,3.5H16.9c5.53,0,7.28,6.07,7.83,15.2.23,3.77.25,8.06.25,12.66H59.31C59.31,15.75,58.5,3.5,51.23,3.5Z"/></svg>